<svg viewBox="0 0 448 512" version="1.1" xmlns="http://www.w3.org/2000/svg" xmlns:xlink="http://www.w3.org/1999/xlink">
    <g id="Page-1" stroke="none" stroke-width="1" fill="none" fill-rule="evenodd">
        <g id="trash-alt" fill-rule="nonzero" fill="#D9534F">
            <path d="M180,176 L156,176 C149.4,176 144,181.4 144,188 L144,404 C144,410.6 149.4,416 156,416 L180,416 C186.6,416 192,410.6 192,404 L192,188 C192,181.4 186.6,176 180,176 Z M292,176 L268,176 C261.4,176 256,181.4 256,188 L256,404 C256,410.6 261.4,416 268,416 L292,416 C298.6,416 304,410.6 304,404 L304,188 C304,181.4 298.6,176 292,176 Z" id="Shape"></path>
            <path d="M349.6,80 L315.6,23.3 C306.9,8.8 291.3,0 274.4,0 L173.6,0 C156.7,0 141.1,8.8 132.4,23.3 L98.4,80 L24,80 C10.7,80 0,90.7 0,104 L0,116 C0,122.6 5.4,128 12,128 L32,128 L32,464 C32,490.5 53.5,512 80,512 L368,512 C394.5,512 416,490.5 416,464 L416,128 L436,128 C442.6,128 448,122.6 448,116 L448,104 C448,90.7 437.3,80 424,80 L349.6,80 Z M173.6,48 L274.4,48 L293.6,80 L154.4,80 L173.6,48 Z M368,464 L80,464 L80,128 L368,128 L368,464 Z" id="Shape"></path>
        </g>
    </g>
</svg>